<?xml version="1.0" standalone="no"?>
<!DOCTYPE svg PUBLIC "-//W3C//DTD SVG 20010904//EN"
 "http://www.w3.org/TR/2001/REC-SVG-20010904/DTD/svg10.dtd">
<svg version="1.0" xmlns="http://www.w3.org/2000/svg"
 width="107.000000pt" height="107.000000pt" viewBox="0 0 107.000000 107.000000"
 preserveAspectRatio="xMidYMid meet">
<metadata>
Created by potrace 1.14, written by Peter Selinger 2001-2017
</metadata>
<g transform="translate(0.000000,107.000000) scale(0.100000,-0.100000)"
fill="#000000" stroke="none">
<path d="M729 787 c-65 -24 -107 -57 -140 -108 -26 -42 -33 -63 -37 -122 -8
-128 35 -214 130 -264 72 -37 181 -38 248 -4 80 41 80 41 80 163 l0 108 -105
0 -105 0 0 -30 0 -29 73 -3 72 -3 0 -60 0 -60 -45 -23 c-36 -19 -56 -23 -101
-19 -110 9 -170 70 -177 181 -9 164 137 263 284 191 l56 -27 21 21 c22 22 22
22 2 37 -73 56 -185 78 -256 51z"/>
<path d="M52 533 l3 -258 133 -3 c149 -3 199 7 243 46 54 48 52 142 -3 194
l-31 29 22 23 c31 33 43 82 31 126 -21 79 -75 100 -260 100 l-140 0 2 -257z
m313 162 c30 -29 32 -68 5 -95 -27 -27 -51 -31 -155 -28 l-90 3 -3 59 c-2 32
-1 65 2 72 4 11 31 14 111 14 99 0 107 -2 130 -25z m10 -215 c31 -29 33 -78 6
-111 -18 -23 -25 -24 -138 -24 l-118 0 -3 60 c-2 32 0 70 3 83 6 24 6 25 115
20 98 -4 113 -7 135 -28z"/>
</g>
</svg>
