<?xml version="1.0" encoding="UTF-8" standalone="no"?>
<svg
   height="132.34595"
   viewBox="42.544 -0.671 20.961628 29.313039"
   width="111.98408"
   version="1.1"
   id="svg4"
   sodipodi:docname="android.svg"
   inkscape:version="1.1 (c68e22c387, 2021-05-23)"
   xmlns:inkscape="http://www.inkscape.org/namespaces/inkscape"
   xmlns:sodipodi="http://sodipodi.sourceforge.net/DTD/sodipodi-0.dtd"
   xmlns="http://www.w3.org/2000/svg"
   xmlns:svg="http://www.w3.org/2000/svg">
  <defs
     id="defs8" />
  <sodipodi:namedview
     id="namedview6"
     pagecolor="#ffffff"
     bordercolor="#666666"
     borderopacity="1.0"
     inkscape:pageshadow="2"
     inkscape:pageopacity="0.0"
     inkscape:pagecheckerboard="0"
     showgrid="false"
     fit-margin-top="0"
     fit-margin-left="0"
     fit-margin-right="0"
     fit-margin-bottom="0"
     inkscape:zoom="3.9808"
     inkscape:cx="35.420016"
     inkscape:cy="72.221664"
     inkscape:window-width="1600"
     inkscape:window-height="811"
     inkscape:window-x="-9"
     inkscape:window-y="211"
     inkscape:window-maximized="1"
     inkscape:current-layer="svg4" />
  <path
     d="m 42.78741,9.1012937 c -0.488067,0 -0.902175,0.1702035 -1.242577,0.5106008 -0.340403,0.340407 -0.510656,0.7488735 -0.510656,1.2256235 v 7.319949 c 0,0.488674 0.170202,0.902427 0.510656,1.242883 0.340402,0.340397 0.75451,0.510658 1.242577,0.510658 0.48771,0 0.899307,-0.170203 1.234435,-0.510658 0.334461,-0.340407 0.502153,-0.754209 0.502153,-1.242883 v -7.319949 c 0,-0.476798 -0.170201,-0.8852165 -0.510656,-1.2256235 C 43.672889,9.2714972 43.264159,9.1012937 42.78741,9.1012937 Z M 56.882836,2.5301706 58.091507,0.30049795 c 0.07934,-0.14761021 0.05112,-0.26080863 -0.08492,-0.34039735 -0.147665,-0.068611 -0.261116,-0.0338223 -0.340403,0.10187279 L 56.440607,2.3094656 c -1.07842,-0.4767979 -2.21902,-0.7156317 -3.421801,-0.7156317 -1.203038,0 -2.34374,0.2388918 -3.421752,0.7156317 L 48.37143,0.06197339 C 48.29178,-0.07376036 48.178333,-0.10823012 48.031027,-0.0398994 47.894682,0.0400179 47.86646,0.15288774 47.946107,0.30049795 l 1.20872,2.22967265 C 47.929202,3.1551971 46.953067,4.0256673 46.226778,5.1434848 45.50049,6.2619015 45.137192,7.4840947 45.137192,8.8122097 H 60.88331 c 0,-1.3278058 -0.363349,-2.5500473 -1.089586,-3.6687249 -0.72634,-1.1178175 -1.696841,-1.9882877 -2.910891,-2.6133142 z m -6.987991,3.2431049 c -0.130712,0.131018 -0.286828,0.1962177 -0.468297,0.1962177 -0.181829,0 -0.334769,-0.065229 -0.459539,-0.1962177 -0.12477,-0.1304091 -0.187155,-0.2859048 -0.187155,-0.4679944 0,-0.1814712 0.06239,-0.337276 0.187155,-0.4679848 0.12477,-0.1304091 0.278069,-0.1956088 0.459539,-0.1956088 0.181469,0 0.337585,0.065229 0.468297,0.1956088 0.130404,0.131018 0.195913,0.2865136 0.195913,0.4679848 -3.58e-4,0.1817804 -0.06582,0.3375853 -0.195913,0.4679944 z m 7.175095,0 c -0.125027,0.131018 -0.278326,0.1962177 -0.459488,0.1962177 -0.181879,0 -0.337944,-0.065229 -0.468399,-0.1962177 -0.13066,-0.1304091 -0.195863,-0.2859048 -0.195863,-0.4679944 0,-0.1814712 0.0652,-0.337276 0.195863,-0.4679848 0.130455,-0.1304091 0.28652,-0.1956088 0.468399,-0.1956088 0.18147,0 0.33441,0.065229 0.459488,0.1956088 0.124873,0.131018 0.187155,0.2865136 0.187155,0.4679848 0,0.1817804 -0.06233,0.3375853 -0.187155,0.4679944 z M 45.204804,20.762007 c 0,0.522545 0.18147,0.964873 0.54446,1.327863 0.363298,0.362991 0.805627,0.544462 1.327807,0.544462 h 1.259788 l 0.01726,3.864691 c 0,0.488018 0.170201,0.902428 0.510604,1.242883 0.340403,0.340455 0.749183,0.510659 1.225625,0.510659 0.487761,0 0.902124,-0.170204 1.242578,-0.510659 0.340454,-0.340455 0.510656,-0.754817 0.510656,-1.242883 V 22.63469 H 54.1927 v 3.864333 c 0,0.488018 0.17015,0.902428 0.510604,1.242883 0.340454,0.340455 0.754459,0.510659 1.242578,0.510659 0.487761,0 0.902124,-0.170204 1.242578,-0.510659 0.340454,-0.340455 0.510605,-0.754817 0.510605,-1.242883 V 22.63469 h 1.276792 c 0.510604,0 0.947249,-0.18152 1.310905,-0.54451 0.362939,-0.362991 0.544511,-0.805319 0.544511,-1.327806 V 9.424432 H 45.204804 Z M 63.249538,9.1012937 c -0.4768,0 -0.885222,0.167691 -1.225676,0.502155 -0.340402,0.3350728 -0.510604,0.7466703 -0.510604,1.2340693 v 7.319949 c 0,0.488674 0.170151,0.902427 0.510604,1.242883 0.340454,0.340455 0.749183,0.510658 1.225676,0.510658 0.487761,0 0.902124,-0.170203 1.242578,-0.510658 0.340455,-0.340456 0.510605,-0.754209 0.510605,-1.242883 v -7.319949 c 0,-0.487447 -0.17015,-0.8989965 -0.510605,-1.2340693 -0.340454,-0.334464 -0.754817,-0.502155 -1.242578,-0.502155 z"
     id="path2"
     style="stroke-width:0.0512192" />
</svg>
