<?xml version="1.0" encoding="UTF-8" standalone="no"?>
<svg
   viewBox="0 0 28 26.362"
   version="1.1"
   id="svg32"
   sodipodi:docname="autohotkey.svg"
   width="28"
   height="26.362"
   inkscape:version="1.1 (c68e22c387, 2021-05-23)"
   xmlns:inkscape="http://www.inkscape.org/namespaces/inkscape"
   xmlns:sodipodi="http://sodipodi.sourceforge.net/DTD/sodipodi-0.dtd"
   xmlns="http://www.w3.org/2000/svg"
   xmlns:svg="http://www.w3.org/2000/svg">
  <sodipodi:namedview
     id="namedview34"
     pagecolor="#ffffff"
     bordercolor="#666666"
     borderopacity="1.0"
     inkscape:pageshadow="2"
     inkscape:pageopacity="0.0"
     inkscape:pagecheckerboard="0"
     showgrid="false"
     inkscape:zoom="13.744388"
     inkscape:cx="14.478637"
     inkscape:cy="13.496418"
     inkscape:window-width="1600"
     inkscape:window-height="811"
     inkscape:window-x="-9"
     inkscape:window-y="211"
     inkscape:window-maximized="1"
     inkscape:current-layer="svg32" />
  <defs
     id="defs14">
    <linearGradient
       id="a"
       x1="54.604"
       y1="168.388"
       x2="54.604"
       y2="194.88499"
       gradientTransform="matrix(0.96688098,0,0,0.96688098,-38.768445,-162.51215)"
       gradientUnits="userSpaceOnUse">
      <stop
         offset="0"
         stop-color="#d8d8d8"
         id="stop2" />
      <stop
         offset="1"
         stop-color="#a3a3a3"
         id="stop4" />
    </linearGradient>
    <linearGradient
       id="b"
       x1="68.755997"
       y1="209.15199"
       x2="91.638"
       y2="209.15199"
       gradientTransform="matrix(0.80444498,0,0,0.80927938,-50.368116,-156.53006)"
       gradientUnits="userSpaceOnUse">
      <stop
         offset="0"
         stop-color="#d7d7d7"
         id="stop7" />
      <stop
         offset="0.5"
         stop-color="#e7e7e7"
         id="stop9" />
      <stop
         offset="1"
         stop-color="#d7d7d7"
         id="stop11" />
    </linearGradient>
  </defs>
  <title
     id="title16">file_type_autohotkey</title>
  <rect
     x="0.49079078"
     y="0.36861992"
     width="27.072668"
     height="25.480215"
     rx="2.9857285"
     ry="2.9857285"
     style="fill:url(#a);stroke-width:0.966881"
     id="rect18" />
  <path
     d="M 24.523584,25.852701 H 3.5306646 A 3.0437413,3.0437413 0 0 1 0.49079076,22.812827 V 3.403659 A 3.0437413,3.0437413 0 0 1 3.5306646,0.363785 H 24.523584 a 3.0437413,3.0437413 0 0 1 3.039874,3.039874 v 19.409168 a 3.0437413,3.0437413 0 0 1 -3.039874,3.039874 z M 3.5306646,0.503016 A 2.9006429,2.9006429 0 0 0 0.63002159,3.403659 v 0 19.409168 A 2.9006429,2.9006429 0 0 0 3.5306646,25.71347 H 24.523584 a 2.9006429,2.9006429 0 0 0 2.900643,-2.900643 V 3.403659 A 2.9006429,2.9006429 0 0 0 24.523584,0.503016 Z"
     style="fill:#8d8d8d;stroke-width:0.966881"
     id="path20" />
  <rect
     x="2.7271867"
     y="2.1254425"
     width="22.401667"
     height="21.213369"
     rx="2.485851"
     ry="2.485851"
     style="fill:url(#b);stroke-width:0.966881"
     id="rect22" />
  <path
     d="M 22.643001,23.396823 H 5.2130375 A 2.5467645,2.5467645 0 0 1 2.6691736,20.852959 V 4.611293 A 2.5467645,2.5467645 0 0 1 5.2130375,2.067429 H 22.643001 a 2.5467645,2.5467645 0 0 1 2.543864,2.543864 v 16.2436 a 2.5467645,2.5467645 0 0 1 -2.543864,2.54193 z M 5.2130375,2.182488 A 2.4307388,2.4307388 0 0 0 2.7851993,4.611293 v 16.2436 a 2.4307388,2.4307388 0 0 0 2.4278382,2.427838 H 22.643001 a 2.4307388,2.4307388 0 0 0 2.427838,-2.427838 V 4.611293 A 2.4307388,2.4307388 0 0 0 22.643001,2.182488 Z"
     style="fill:#f8f8f8;stroke-width:0.966881"
     id="path24" />
  <path
     d="M 4.4985124,20.746603 6.7639146,14.848629 H 7.605101 l 2.417202,5.897974 H 9.132773 L 8.4443537,18.959806 H 5.9759066 L 5.3251957,20.746603 Z M 6.1953885,18.3294 H 8.2006997 L 7.5847965,16.685702 Q 7.3034342,15.941204 7.1661371,15.462598 a 7.5184665,7.5184665 0 0 1 -0.317137,1.126416 z"
     id="path26"
     style="stroke-width:0.966881" />
  <path
     d="m 11.713378,20.746603 v -5.897974 h 0.780273 v 2.417202 h 3.06598 v -2.417202 h 0.780273 v 5.897974 h -0.780273 v -2.783651 h -3.065013 v 2.783651 z"
     id="path28"
     style="stroke-width:0.966881" />
  <path
     d="m 18.356817,20.746603 v -5.897974 h 0.780273 v 2.924815 l 2.92965,-2.924815 h 1.057767 l -2.474248,2.385295 2.583506,3.512679 H 22.20307 l -2.100066,-2.985729 -0.966881,0.941742 v 2.043987 z"
     id="path30"
     style="stroke-width:0.966881" />
</svg>
