<?xml version="1.0" encoding="UTF-8" standalone="no"?>
<svg
   width="48"
   height="48"
   data-name="Layer 1"
   viewBox="0 0 48 48"
   version="1.1"
   id="svg8"
   sodipodi:docname="java.svg"
   inkscape:version="1.1 (c68e22c387, 2021-05-23)"
   xmlns:inkscape="http://www.inkscape.org/namespaces/inkscape"
   xmlns:sodipodi="http://sodipodi.sourceforge.net/DTD/sodipodi-0.dtd"
   xmlns="http://www.w3.org/2000/svg"
   xmlns:svg="http://www.w3.org/2000/svg">
  <defs
     id="defs12" />
  <sodipodi:namedview
     id="namedview10"
     pagecolor="#ffffff"
     bordercolor="#666666"
     borderopacity="1.0"
     inkscape:pageshadow="2"
     inkscape:pageopacity="0.0"
     inkscape:pagecheckerboard="0"
     showgrid="false"
     inkscape:zoom="9.1629254"
     inkscape:cx="20.735736"
     inkscape:cy="21.881658"
     inkscape:window-width="1600"
     inkscape:window-height="811"
     inkscape:window-x="-9"
     inkscape:window-y="211"
     inkscape:window-maximized="1"
     inkscape:current-layer="svg8" />
  <path
     d="m 19.671167,25.248912 c 0,0 -1.155433,0.693259 0.843465,0.9359 a 18.117174,18.117174 0 0 0 6.458865,-0.277304 10.861061,10.861061 0 0 0 1.710039,0.831911 c -6.100681,2.62283 -13.807412,-0.150205 -9.012369,-1.490507 z m -0.751031,-3.408524 c 0,0 -1.328747,0.993671 0.704813,1.155431 a 25.095982,25.095982 0 0 0 8.330665,-0.4044 3.6627194,3.6627194 0 0 0 1.28253,0.785693 C 21.866488,25.53777 13.651366,23.550427 18.920136,21.794171 Z m 6.28555,-5.788714 a 2.3108639,2.3108639 0 0 1 -0.392847,3.292981 c 0,0 3.812925,-1.975789 2.068223,-4.43686 -1.744702,-2.461069 -2.900134,-3.466295 3.893806,-7.3832093 0,0 -10.664637,2.6574943 -5.569182,8.5270883 z"
     id="path2"
     style="stroke-width:1.15543" />
  <path
     d="m 33.270601,27.779308 c 0,0 0.889682,0.727922 -0.970563,1.282529 -3.466296,1.074553 -14.650877,1.386519 -17.747435,0 -1.155432,-0.485281 0.982117,-1.155431 1.629159,-1.294083 a 4.4021958,4.4021958 0 0 1 1.074551,-0.127097 c -1.236312,-0.866575 -7.9840339,1.710038 -3.466295,2.449515 12.432448,2.022006 22.669575,-0.901237 19.434366,-2.310864 z M 20.237328,18.304766 c 0,0 -5.696279,1.351855 -1.998897,1.837137 a 42.161713,42.161713 0 0 0 7.487199,-0.08088 c 2.310864,-0.196424 4.702608,-0.623934 4.702608,-0.623934 a 10.468213,10.468213 0 0 0 -1.432735,0.762585 C 23.218343,21.71329 12.13775,21.008476 15.338297,19.471752 a 10.61842,10.61842 0 0 1 4.899031,-1.155432 z m 10.167801,5.684725 c 5.846486,-3.038786 3.142776,-5.962029 1.247867,-5.569182 a 4.6217279,4.6217279 0 0 0 -0.658596,0.184869 0.9936715,0.9936715 0 0 1 0.496836,-0.392847 c 3.732044,-1.305638 6.597516,3.870698 -1.155432,5.927366 a 0.73947646,0.73947646 0 0 0 0.115543,-0.150206 z M 26.881062,1.1581555 c 0,0 3.235209,3.2352096 -3.073449,8.2151214 -5.060792,3.9746851 -1.17854,6.2855491 -0.0231,8.8737181 -2.957905,-2.657494 -5.118563,-5.003021 -3.674273,-7.186788 2.137549,-3.200546 8.088024,-4.7603792 6.747722,-9.9020515 z"
     id="path4"
     style="stroke-width:1.15543" />
  <path
     d="m 20.815044,32.216167 c 5.6154,0.358184 14.234922,-0.196424 14.431346,-2.853918 0,0 -0.392847,1.005226 -4.621729,1.802475 a 46.136398,46.136398 0 0 1 -14.200258,0.219531 c 0,0 0.716368,0.600826 4.402195,0.831912 z m 14.177151,4.76038 H 34.81888 v -0.09244 h 0.519944 v 0.09244 h -0.231086 v 0.485281 h -0.115543 z m 0.912791,0 v 0 l -0.161761,0.462172 h -0.08088 L 35.48903,36.976547 v 0 0.462172 h -0.15021 v -0.577716 h 0.173314 l 0.150207,0.404402 0.161761,-0.404402 h 0.16176 v 0.577716 H 35.870319 V 36.976547 Z M 19.902253,42.36086 a 2.5535047,2.5535047 0 0 1 -1.594496,0.716368 1.0167801,1.0167801 0 0 1 -1.155432,-1.155433 c 0,-0.739476 0.415956,-1.282529 2.079777,-1.282529 h 0.623934 v 1.686931 z m 1.455845,1.652267 v -5.107009 c 0,-1.294084 -0.739477,-2.160658 -2.530396,-2.160658 a 6.6321795,6.6321795 0 0 0 -2.715266,0.58927 l 0.219532,0.901238 A 6.1700068,6.1700068 0 0 1 18.4233,37.820012 c 1.028334,0 1.478953,0.415956 1.478953,1.282529 v 0.635488 h -0.519944 c -2.530396,0 -3.685829,0.982117 -3.685829,2.495733 0,1.259421 0.751031,1.975789 2.149104,1.975789 a 3.2583182,3.2583182 0 0 0 2.206875,-0.912791 l 0.115543,0.774139 z m 4.875922,0 h -1.825582 l -2.195321,-7.14057 h 1.571387 l 1.36341,4.390643 0.300413,1.317192 a 27.141097,27.141097 0 0 0 1.42118,-5.707835 h 1.536725 a 29.186211,29.186211 0 0 1 -2.206875,7.14057 z m 6.990364,-1.652267 a 2.5535047,2.5535047 0 0 1 -1.594497,0.716368 1.0052258,1.0052258 0 0 1 -1.09766,-1.155433 c 0,-0.739476 0.415956,-1.282529 2.068223,-1.282529 h 0.623934 v 1.686931 z m 1.455844,1.652267 v -5.107009 c 0,-1.294084 -0.739477,-2.160658 -2.530396,-2.160658 a 6.6321795,6.6321795 0 0 0 -2.715265,0.58927 l 0.219531,0.901238 a 6.1700068,6.1700068 0 0 1 2.091333,-0.415956 c 1.028334,0 1.478953,0.415956 1.478953,1.282529 v 0.635488 h -0.519945 c -2.507287,0 -3.639611,0.982117 -3.639611,2.437961 0,1.259421 0.751031,1.975789 2.149104,1.975789 a 3.2583182,3.2583182 0 0 0 2.206875,-0.912791 l 0.115543,0.774139 z m -20.543581,1.213204 a 3.90536,3.90536 0 0 1 -1.825582,1.36341 l -0.716368,-0.889683 a 3.0503405,3.0503405 0 0 0 1.259421,-1.155432 4.6217279,4.6217279 0 0 0 0.277303,-2.068224 V 34.388379 H 14.6797 v 8.030252 a 4.6217279,4.6217279 0 0 1 -0.543053,2.853917 z"
     id="path6"
     style="stroke-width:1.15543" />
</svg>
