<?xml version="1.0" encoding="UTF-8" standalone="no"?>
<svg
   width="48"
   height="48"
   data-name="Layer 1"
   viewBox="0 0 48 48"
   version="1.1"
   id="svg8"
   sodipodi:docname="javaee.svg"
   inkscape:version="1.1 (c68e22c387, 2021-05-23)"
   xmlns:inkscape="http://www.inkscape.org/namespaces/inkscape"
   xmlns:sodipodi="http://sodipodi.sourceforge.net/DTD/sodipodi-0.dtd"
   xmlns="http://www.w3.org/2000/svg"
   xmlns:svg="http://www.w3.org/2000/svg">
  <defs
     id="defs12" />
  <sodipodi:namedview
     id="namedview10"
     pagecolor="#ffffff"
     bordercolor="#666666"
     borderopacity="1.0"
     inkscape:pageshadow="2"
     inkscape:pageopacity="0.0"
     inkscape:pagecheckerboard="0"
     showgrid="false"
     inkscape:zoom="12.958333"
     inkscape:cx="32.334405"
     inkscape:cy="30.135048"
     inkscape:window-width="1600"
     inkscape:window-height="811"
     inkscape:window-x="-9"
     inkscape:window-y="211"
     inkscape:window-maximized="1"
     inkscape:current-layer="svg8" />
  <path
     d="m 20.44,24.3 c 0,0 -1,0.6 0.73,0.81 a 15.68,15.68 0 0 0 5.59,-0.24 9.4,9.4 0 0 0 1.48,0.72 c -5.28,2.27 -11.95,-0.13 -7.8,-1.29 z m -0.65,-2.95 c 0,0 -1.15,0.86 0.61,1 a 21.72,21.72 0 0 0 7.21,-0.35 3.17,3.17 0 0 0 1.11,0.68 c -6.38,1.87 -13.49,0.15 -8.93,-1.37 z m 5.44,-5.01 a 2,2 0 0 1 -0.34,2.85 c 0,0 3.3,-1.71 1.79,-3.84 -1.51,-2.13 -2.51,-3 3.37,-6.39 0,0 -9.23,2.3 -4.82,7.38 z"
     id="path2" />
  <path
     d="m 32.21,26.49 c 0,0 0.77,0.63 -0.84,1.11 -3,0.93 -12.68,1.2 -15.36,0 -1,-0.42 0.85,-1 1.41,-1.12 a 3.81,3.81 0 0 1 0.93,-0.11 c -1.07,-0.75 -6.91,1.48 -3,2.12 10.76,1.75 19.62,-0.78 16.82,-2 z m -11.28,-8.2 c 0,0 -4.93,1.17 -1.73,1.59 a 36.49,36.49 0 0 0 6.48,-0.07 c 2,-0.17 4.07,-0.54 4.07,-0.54 a 9.06,9.06 0 0 0 -1.24,0.66 c -5,1.31 -14.59,0.7 -11.82,-0.63 a 9.19,9.19 0 0 1 4.24,-1 z m 8.8,4.92 c 5.06,-2.63 2.72,-5.16 1.08,-4.82 a 4,4 0 0 0 -0.57,0.16 0.86,0.86 0 0 1 0.43,-0.34 c 3.23,-1.13 5.71,3.35 -1,5.13 a 0.64,0.64 0 0 0 0.1,-0.13 z M 26.68,3.45 c 0,0 2.8,2.8 -2.66,7.11 C 19.64,14 23,16 24,18.24 c -2.56,-2.3 -4.43,-4.33 -3.18,-6.22 1.85,-2.77 7,-4.12 5.84,-8.57 z"
     id="path4" />
  <path
     d="m 21.43,30.33 c 4.86,0.31 12.32,-0.17 12.49,-2.47 0,0 -0.34,0.87 -4,1.56 -4.062307,0.697262 -8.20808,0.761354 -12.29,0.19 0,0 0.62,0.52 3.81,0.72 z"
     id="path6"
     sodipodi:nodetypes="cccccc" />
  <path
     d="m 26.87828,34.556222 h -0.150001 v -0.08 h 0.450001 v 0.08 h -0.200001 v 0.42 h -0.1 z m 0.79,0 v 0 l -0.14,0.4 h -0.07 l -0.15,-0.4 v 0 0.4 h -0.13 v -0.5 h 0.149999 l 0.130001,0.35 0.14,-0.35 h 0.14 v 0.5 h -0.1 v -0.4 z m -13.85,4.66 c -0.372734,0.362583 -0.861384,0.582121 -1.38,0.62 -0.584561,0.08704 -1.087035,-0.415439 -1,-1 0,-0.64 0.36,-1.11 1.8,-1.11 h 0.54 v 1.46 z m 1.26,1.43 v -4.42 c 0,-1.12 -0.64,-1.87 -2.19,-1.87 -0.810556,0.0022 -1.611463,0.175982 -2.350001,0.51 l 0.190001,0.78 c 0.577868,-0.224134 1.190346,-0.345952 1.809999,-0.36 0.890001,0 1.280001,0.36 1.280001,1.11 v 0.55 h -0.45 c -2.19,0 -3.19,0.85 -3.19,2.16 0,1.09 0.649999,1.71 1.859999,1.71 0.713705,-0.01211 1.396263,-0.294425 1.91,-0.79 l 0.100001,0.67 z m 4.219999,0 h -1.58 l -1.899999,-6.18 h 1.36 l 1.179999,3.8 0.26,1.14 c 0.587752,-1.597245 1.000174,-3.253636 1.230001,-4.94 h 1.33 c -0.36919,2.133341 -1.011119,4.210366 -1.910001,6.18 z m 6.050001,-1.43 c -0.372734,0.362583 -0.861385,0.582122 -1.380001,0.62 -0.568185,0.05942 -1.038462,-0.435607 -0.949999,-1 0,-0.64 0.36,-1.11 1.79,-1.11 h 0.54 v 1.46 z m 1.259999,1.43 v -4.42 c 0,-1.12 -0.64,-1.87 -2.19,-1.87 -0.810556,0.0022 -1.611462,0.175982 -2.35,0.51 l 0.19,0.78 c 0.577869,-0.224134 1.190346,-0.345953 1.81,-0.36 0.89,0 1.28,0.36 1.28,1.11 v 0.55 h -0.45 c -2.17,0 -3.15,0.85 -3.15,2.11 0,1.09 0.65,1.71 1.86,1.71 0.713705,-0.01211 1.396263,-0.294425 1.91,-0.79 l 0.1,0.67 z m -17.7799989,1.05 c -0.397666,0.541642 -0.947749,0.952464 -1.58,1.18 l -0.62,-0.77 c 0.451203,-0.222653 0.829384,-0.569608 1.09,-1 0.215414,-0.570568 0.297506,-1.182839 0.24,-1.79 v -7 h 1.34 v 6.95 c 0.112898,0.852449 -0.05191,1.718588 -0.47,2.47 z"
     id="path6-5"
     sodipodi:nodetypes="cccccccccccccccccccccccccccccsccccsccccscsscccccccccccccccccsccccsccccscsscccccccccccccc" />
  <text
     xml:space="preserve"
     style="font-style:normal;font-weight:normal;font-size:11.3685px;line-height:1.25;font-family:sans-serif;fill:#000000;fill-opacity:1;stroke:none;stroke-width:0.284213"
     x="29.773212"
     y="39.377499"
     id="text8410"
     transform="scale(0.96276748,1.0386724)"><tspan
       sodipodi:role="line"
       id="tspan8408"
       x="29.773212"
       y="39.377499"
       style="font-style:normal;font-variant:normal;font-weight:normal;font-stretch:normal;font-family:'Lucida Sans';-inkscape-font-specification:'Lucida Sans';stroke-width:0.284213">EE</tspan></text>
</svg>
