<?xml version="1.0" encoding="UTF-8" standalone="no"?>
<svg
   width="50"
   height="52"
   viewBox="0 0 50 52"
   version="1.1"
   id="svg6"
   sodipodi:docname="laravel.svg"
   inkscape:version="1.1 (c68e22c387, 2021-05-23)"
   xmlns:inkscape="http://www.inkscape.org/namespaces/inkscape"
   xmlns:sodipodi="http://sodipodi.sourceforge.net/DTD/sodipodi-0.dtd"
   xmlns="http://www.w3.org/2000/svg"
   xmlns:svg="http://www.w3.org/2000/svg">
  <defs
     id="defs10">
    <filter
       style="color-interpolation-filters:sRGB;"
       inkscape:label="Greyscale"
       id="filter829"
       x="0"
       y="0"
       width="1"
       height="1">
      <feColorMatrix
         values="0.21 0.72 0.072 0 0 0.21 0.72 0.072 0 0 0.21 0.72 0.072 0 0 0 0 0 1 0 "
         id="feColorMatrix827" />
    </filter>
  </defs>
  <sodipodi:namedview
     id="namedview8"
     pagecolor="#ffffff"
     bordercolor="#666666"
     borderopacity="1.0"
     inkscape:pageshadow="2"
     inkscape:pageopacity="0.0"
     inkscape:pagecheckerboard="0"
     showgrid="false"
     inkscape:zoom="5.9807692"
     inkscape:cx="22.572347"
     inkscape:cy="35.363344"
     inkscape:window-width="1600"
     inkscape:window-height="811"
     inkscape:window-x="-9"
     inkscape:window-y="211"
     inkscape:window-maximized="1"
     inkscape:current-layer="svg6" />
  <title
     id="title2">Logomark</title>
  <path
     d="m 48.958227,12.694656 a 0.77903392,0.77903392 0 0 1 0.02696,0.201259 v 10.565587 a 0.77036729,0.77036729 0 0 1 -0.38711,0.668294 l -8.86789,5.105609 v 10.119737 c 0,0.275406 -0.14637,0.529628 -0.385184,0.668294 l -18.51096,10.656105 c -0.04237,0.02407 -0.08859,0.03948 -0.134814,0.05585 -0.01733,0.0058 -0.0337,0.01637 -0.052,0.02119 a 0.77518208,0.77518208 0 0 1 -0.394813,0 c -0.02118,-0.0058 -0.04044,-0.01733 -0.06067,-0.02504 -0.04237,-0.01541 -0.08667,-0.02889 -0.12711,-0.052 L 1.5575276,40.023436 A 0.77133025,0.77133025 0 0 1 1.170418,39.355142 V 7.65838 c 0,-0.069333 0.00963,-0.1367402 0.026963,-0.2022214 0.00578,-0.022148 0.019259,-0.04237 0.026963,-0.064518 0.014444,-0.040444 0.027926,-0.081851 0.049111,-0.1194069 0.014444,-0.025037 0.035629,-0.045259 0.052963,-0.06837 0.022148,-0.030815 0.04237,-0.062592 0.06837,-0.089555 0.022148,-0.022148 0.051037,-0.038518 0.076074,-0.057778 0.027926,-0.023111 0.052963,-0.048148 0.08474,-0.066444 h 9.629e-4 L 10.810602,1.6620336 a 0.77229321,0.77229321 0 0 1 0.770367,0 l 9.254037,5.3280528 h 0.0019 c 0.03082,0.019259 0.05682,0.043333 0.08474,0.065481 0.02504,0.019259 0.05296,0.036592 0.07511,0.057777 0.02696,0.027926 0.04622,0.059704 0.06933,0.090518 0.01637,0.023111 0.03852,0.043333 0.052,0.06837 0.02215,0.038518 0.03467,0.078963 0.05007,0.1194069 0.0077,0.022148 0.02118,0.04237 0.02696,0.065481 a 0.77903392,0.77903392 0 0 1 0.02696,0.2012585 V 27.455856 l 7.711376,-4.440204 v -10.1207 c 0,-0.06741 0.0096,-0.135778 0.02696,-0.200296 0.0067,-0.02311 0.01926,-0.04333 0.02696,-0.06548 0.01541,-0.04044 0.02889,-0.08185 0.05007,-0.119407 0.01444,-0.02504 0.03563,-0.04526 0.052,-0.06837 0.02311,-0.03082 0.04237,-0.06259 0.06933,-0.08955 0.02215,-0.02215 0.05007,-0.03852 0.07511,-0.05778 0.02889,-0.02311 0.05393,-0.04815 0.08474,-0.06644 h 9.63e-4 l 9.255,-5.3280528 a 0.77133025,0.77133025 0 0 1 0.770367,0 l 9.254037,5.3280528 c 0.03274,0.01926 0.05778,0.04333 0.08667,0.06548 0.02407,0.01926 0.052,0.03659 0.07415,0.05778 0.02696,0.02793 0.04622,0.0597 0.06933,0.09052 0.01733,0.02311 0.03852,0.04333 0.052,0.06837 0.02215,0.03756 0.03467,0.07896 0.05007,0.119407 0.0087,0.02215 0.02119,0.04237 0.02696,0.06548 z m -1.515698,10.320996 v -8.786039 l -3.238431,1.864289 -4.473908,2.575916 v 8.786038 l 7.713302,-4.440204 z m -9.254037,15.89364 v -8.791817 l -4.400723,2.513324 -12.566616,7.172119 v 8.874631 z M 2.7130785,8.9920784 V 38.909292 l 16.9654135,9.767294 v -8.872705 l -8.863075,-5.016054 -0.0029,-0.0019 -0.0038,-0.0019 c -0.02985,-0.01733 -0.05489,-0.04237 -0.08281,-0.06356 -0.02407,-0.01926 -0.052,-0.03467 -0.07319,-0.05585 l -0.0019,-0.0029 c -0.02504,-0.02407 -0.04237,-0.05393 -0.06356,-0.08089 -0.01926,-0.026 -0.04237,-0.04815 -0.05778,-0.07511 l -9.63e-4,-0.0029 c -0.01733,-0.02889 -0.02793,-0.06356 -0.04044,-0.0963 -0.01252,-0.02889 -0.02889,-0.05585 -0.03659,-0.08667 v -9.63e-4 c -0.0096,-0.03659 -0.01156,-0.07511 -0.01541,-0.112666 -0.0038,-0.02889 -0.01156,-0.05778 -0.01156,-0.08667 v -0.0019 -20.685325 L 5.95151,10.855404 2.7130785,8.9930413 Z M 11.196748,3.2201014 3.4863347,7.65838 11.194822,12.096659 18.904273,7.657417 11.194822,3.2201014 Z M 15.20651,30.918657 19.679455,28.343705 V 8.9920784 l -3.238431,1.8642886 -4.473908,2.575916 v 19.351626 z m 23.753312,-22.461021 -7.70945,4.438279 7.70945,4.438278 7.708488,-4.439241 z m -0.77133,10.212182 -4.473908,-2.575916 -3.238431,-1.864289 v 8.786039 l 4.472945,2.574953 3.239394,1.865251 z m -17.739633,19.799402 11.308029,-6.455678 5.65257,-3.225913 -7.703673,-4.43539 -8.869816,5.106572 -8.084042,4.653982 z"
     fill="#ff2d20"
     fill-rule="evenodd"
     id="path4"
     style="stroke-width:0.962959;filter:url(#filter829)"
     transform="matrix(0.97961898,0,0,0.97961898,0.52546204,0.53338418)" />
</svg>
