<svg xmlns="http://www.w3.org/2000/svg" enable-background="new 0 0 24 24" viewBox="0 0 24 24"><path d="M18.755,21H1.285c-0.411,0-0.782-0.171-1.019-0.47c-0.24-0.303-0.323-0.71-0.228-1.118L3.546,4.361C3.722,3.599,4.469,3,5.245,3h17.47c0.411,0,0.782,0.171,1.019,0.47c0.24,0.303,0.323,0.71,0.228,1.118l-3.507,15.051C20.278,20.401,19.531,21,18.755,21z M5.245,4C4.931,4,4.592,4.274,4.52,4.587L1.013,19.639C0.987,19.75,1,19.846,1.05,19.908C1.11,19.984,1.211,20,1.285,20h17.47c0.313,0,0.652-0.274,0.725-0.587l3.507-15.052C23.013,4.25,23,4.154,22.95,4.092C22.89,4.016,22.789,4,22.715,4H5.245z"/><path d="M16.616 19H12.39C11.624 19 11 18.439 11 17.75c.005-.69.625-1.25 1.384-1.25h4.232c.758 0 1.379.56 1.384 1.246C17.995 18.44 17.375 19 16.616 19zM12.39 17.5c-.231 0-.389.134-.39.254C12 17.868 12.167 18 12.39 18h4.221c.231 0 .389-.134.39-.254-.001-.112-.159-.246-.384-.246H12.39zM5.529 18.999c-.462 0-.927-.216-1.228-.618-.246-.328-.347-.727-.284-1.121.059-.377.263-.705.572-.925 0 0 0 0 .001-.001l6.604-4.653-4.065-4.21C6.868 7.2 6.731 6.843 6.743 6.463c.012-.396.192-.779.493-1.055C7.839 4.855 8.773 4.867 9.32 5.435l5.294 5.481c.456.473.515 1.198.144 1.766-.089.184-.296.395-.622.618l-7.784 5.441C6.105 18.915 5.818 18.999 5.529 18.999zM5.167 17.151c-.112.08-.149.188-.162.265-.02.126.015.256.097.367.164.22.473.283.673.14l7.79-5.445c.252-.172.314-.27.327-.295.143-.225.133-.436.001-.571L8.6 6.129C8.43 5.951 8.114 5.96 7.91 6.146 7.806 6.242 7.746 6.365 7.742 6.494 7.74 6.569 7.756 6.68 7.849 6.775l4.413 4.569c.09.094.14.218.14.348v.102c0 .162-.079.315-.212.409L5.167 17.151 5.167 17.151z"/></svg>