<?xml version="1.0" encoding="UTF-8" standalone="no"?>
<svg
   width="170.819"
   height="170.7"
   version="1.1"
   id="svg52"
   sodipodi:docname="vba.svg"
   inkscape:version="1.1 (c68e22c387, 2021-05-23)"
   xmlns:inkscape="http://www.inkscape.org/namespaces/inkscape"
   xmlns:sodipodi="http://sodipodi.sourceforge.net/DTD/sodipodi-0.dtd"
   xmlns="http://www.w3.org/2000/svg"
   xmlns:svg="http://www.w3.org/2000/svg">
  <defs
     id="defs56">
    <filter
       style="color-interpolation-filters:sRGB;"
       inkscape:label="Greyscale"
       id="filter875"
       x="0"
       y="0"
       width="1"
       height="1">
      <feColorMatrix
         values="0.21 0.72 0.072 0 0 0.21 0.72 0.072 0 0 0.21 0.72 0.072 0 0 0 0 0 1 0 "
         id="feColorMatrix873" />
    </filter>
    <filter
       style="color-interpolation-filters:sRGB;"
       inkscape:label="Greyscale"
       id="filter879"
       x="0"
       y="0"
       width="1"
       height="1">
      <feColorMatrix
         values="0.21 0.72 0.072 0 0 0.21 0.72 0.072 0 0 0.21 0.72 0.072 0 0 0 0 0 1 0 "
         id="feColorMatrix877" />
    </filter>
    <filter
       style="color-interpolation-filters:sRGB;"
       inkscape:label="Greyscale"
       id="filter883"
       x="0"
       y="0"
       width="1"
       height="1">
      <feColorMatrix
         values="0.21 0.72 0.072 0 0 0.21 0.72 0.072 0 0 0.21 0.72 0.072 0 0 0 0 0 1 0 "
         id="feColorMatrix881" />
    </filter>
    <filter
       style="color-interpolation-filters:sRGB;"
       inkscape:label="Greyscale"
       id="filter887"
       x="0"
       y="0"
       width="1"
       height="1">
      <feColorMatrix
         values="0.21 0.72 0.072 0 0 0.21 0.72 0.072 0 0 0.21 0.72 0.072 0 0 0 0 0 1 0 "
         id="feColorMatrix885" />
    </filter>
    <filter
       style="color-interpolation-filters:sRGB;"
       inkscape:label="Greyscale"
       id="filter891"
       x="0"
       y="0"
       width="1"
       height="1">
      <feColorMatrix
         values="0.21 0.72 0.072 0 0 0.21 0.72 0.072 0 0 0.21 0.72 0.072 0 0 0 0 0 1 0 "
         id="feColorMatrix889" />
    </filter>
    <filter
       style="color-interpolation-filters:sRGB;"
       inkscape:label="Greyscale"
       id="filter895"
       x="0"
       y="0"
       width="1"
       height="1">
      <feColorMatrix
         values="0.21 0.72 0.072 0 0 0.21 0.72 0.072 0 0 0.21 0.72 0.072 0 0 0 0 0 1 0 "
         id="feColorMatrix893" />
    </filter>
    <filter
       style="color-interpolation-filters:sRGB;"
       inkscape:label="Greyscale"
       id="filter899"
       x="0"
       y="0"
       width="1"
       height="1">
      <feColorMatrix
         values="0.21 0.72 0.072 0 0 0.21 0.72 0.072 0 0 0.21 0.72 0.072 0 0 0 0 0 1 0 "
         id="feColorMatrix897" />
    </filter>
    <filter
       style="color-interpolation-filters:sRGB;"
       inkscape:label="Greyscale"
       id="filter903"
       x="0"
       y="0"
       width="1"
       height="1">
      <feColorMatrix
         values="0.21 0.72 0.072 0 0 0.21 0.72 0.072 0 0 0.21 0.72 0.072 0 0 0 0 0 1 0 "
         id="feColorMatrix901" />
    </filter>
    <filter
       style="color-interpolation-filters:sRGB;"
       inkscape:label="Greyscale"
       id="filter907"
       x="0"
       y="0"
       width="1"
       height="1">
      <feColorMatrix
         values="0.21 0.72 0.072 0 0 0.21 0.72 0.072 0 0 0.21 0.72 0.072 0 0 0 0 0 1 0 "
         id="feColorMatrix905" />
    </filter>
    <filter
       style="color-interpolation-filters:sRGB;"
       inkscape:label="Greyscale"
       id="filter911"
       x="0"
       y="0"
       width="1"
       height="1">
      <feColorMatrix
         values="0.21 0.72 0.072 0 0 0.21 0.72 0.072 0 0 0.21 0.72 0.072 0 0 0 0 0 1 0 "
         id="feColorMatrix909" />
    </filter>
    <filter
       style="color-interpolation-filters:sRGB;"
       inkscape:label="Greyscale"
       id="filter915"
       x="0"
       y="0"
       width="1"
       height="1">
      <feColorMatrix
         values="0.21 0.72 0.072 0 0 0.21 0.72 0.072 0 0 0.21 0.72 0.072 0 0 0 0 0 1 0 "
         id="feColorMatrix913" />
    </filter>
    <filter
       style="color-interpolation-filters:sRGB;"
       inkscape:label="Greyscale"
       id="filter919"
       x="0"
       y="0"
       width="1"
       height="1">
      <feColorMatrix
         values="0.21 0.72 0.072 0 0 0.21 0.72 0.072 0 0 0.21 0.72 0.072 0 0 0 0 0 1 0 "
         id="feColorMatrix917" />
    </filter>
    <filter
       style="color-interpolation-filters:sRGB;"
       inkscape:label="Greyscale"
       id="filter923"
       x="0"
       y="0"
       width="1"
       height="1">
      <feColorMatrix
         values="0.21 0.72 0.072 0 0 0.21 0.72 0.072 0 0 0.21 0.72 0.072 0 0 0 0 0 1 0 "
         id="feColorMatrix921" />
    </filter>
    <filter
       style="color-interpolation-filters:sRGB;"
       inkscape:label="Greyscale"
       id="filter927"
       x="0"
       y="0"
       width="1"
       height="1">
      <feColorMatrix
         values="0.21 0.72 0.072 0 0 0.21 0.72 0.072 0 0 0.21 0.72 0.072 0 0 0 0 0 1 0 "
         id="feColorMatrix925" />
    </filter>
    <filter
       style="color-interpolation-filters:sRGB;"
       inkscape:label="Greyscale"
       id="filter931"
       x="0"
       y="0"
       width="1"
       height="1">
      <feColorMatrix
         values="0.21 0.72 0.072 0 0 0.21 0.72 0.072 0 0 0.21 0.72 0.072 0 0 0 0 0 1 0 "
         id="feColorMatrix929" />
    </filter>
    <filter
       style="color-interpolation-filters:sRGB;"
       inkscape:label="Greyscale"
       id="filter935"
       x="0"
       y="0"
       width="1"
       height="1">
      <feColorMatrix
         values="0.21 0.72 0.072 0 0 0.21 0.72 0.072 0 0 0.21 0.72 0.072 0 0 0 0 0 1 0 "
         id="feColorMatrix933" />
    </filter>
    <filter
       style="color-interpolation-filters:sRGB;"
       inkscape:label="Greyscale"
       id="filter939"
       x="0"
       y="0"
       width="1"
       height="1">
      <feColorMatrix
         values="0.21 0.72 0.072 0 0 0.21 0.72 0.072 0 0 0.21 0.72 0.072 0 0 0 0 0 1 0 "
         id="feColorMatrix937" />
    </filter>
    <filter
       style="color-interpolation-filters:sRGB;"
       inkscape:label="Greyscale"
       id="filter943"
       x="0"
       y="0"
       width="1"
       height="1">
      <feColorMatrix
         values="0.21 0.72 0.072 0 0 0.21 0.72 0.072 0 0 0.21 0.72 0.072 0 0 0 0 0 1 0 "
         id="feColorMatrix941" />
    </filter>
    <filter
       style="color-interpolation-filters:sRGB;"
       inkscape:label="Greyscale"
       id="filter947"
       x="0"
       y="0"
       width="1"
       height="1">
      <feColorMatrix
         values="0.21 0.72 0.072 0 0 0.21 0.72 0.072 0 0 0.21 0.72 0.072 0 0 0 0 0 1 0 "
         id="feColorMatrix945" />
    </filter>
    <filter
       style="color-interpolation-filters:sRGB;"
       inkscape:label="Greyscale"
       id="filter951"
       x="0"
       y="0"
       width="1"
       height="1">
      <feColorMatrix
         values="0.21 0.72 0.072 0 0 0.21 0.72 0.072 0 0 0.21 0.72 0.072 0 0 0 0 0 1 0 "
         id="feColorMatrix949" />
    </filter>
    <filter
       style="color-interpolation-filters:sRGB;"
       inkscape:label="Greyscale"
       id="filter955"
       x="0"
       y="0"
       width="1"
       height="1">
      <feColorMatrix
         values="0.21 0.72 0.072 0 0 0.21 0.72 0.072 0 0 0.21 0.72 0.072 0 0 0 0 0 1 0 "
         id="feColorMatrix953" />
    </filter>
    <filter
       style="color-interpolation-filters:sRGB;"
       inkscape:label="Greyscale"
       id="filter959"
       x="0"
       y="0"
       width="1"
       height="1">
      <feColorMatrix
         values="0.21 0.72 0.072 0 0 0.21 0.72 0.072 0 0 0.21 0.72 0.072 0 0 0 0 0 1 0 "
         id="feColorMatrix957" />
    </filter>
    <filter
       style="color-interpolation-filters:sRGB;"
       inkscape:label="Greyscale"
       id="filter963"
       x="0"
       y="0"
       width="1"
       height="1">
      <feColorMatrix
         values="0.21 0.72 0.072 0 0 0.21 0.72 0.072 0 0 0.21 0.72 0.072 0 0 0 0 0 1 0 "
         id="feColorMatrix961" />
    </filter>
    <filter
       style="color-interpolation-filters:sRGB;"
       inkscape:label="Greyscale"
       id="filter967"
       x="0"
       y="0"
       width="1"
       height="1">
      <feColorMatrix
         values="0.21 0.72 0.072 0 0 0.21 0.72 0.072 0 0 0.21 0.72 0.072 0 0 0 0 0 1 0 "
         id="feColorMatrix965" />
    </filter>
    <filter
       style="color-interpolation-filters:sRGB;"
       inkscape:label="Greyscale"
       id="filter971"
       x="0"
       y="0"
       width="1"
       height="1">
      <feColorMatrix
         values="0.21 0.72 0.072 0 0 0.21 0.72 0.072 0 0 0.21 0.72 0.072 0 0 0 0 0 1 0 "
         id="feColorMatrix969" />
    </filter>
  </defs>
  <sodipodi:namedview
     id="namedview54"
     pagecolor="#ffffff"
     bordercolor="#666666"
     borderopacity="1.0"
     inkscape:pageshadow="2"
     inkscape:pageopacity="0.0"
     inkscape:pagecheckerboard="0"
     showgrid="false"
     inkscape:zoom="2.5765696"
     inkscape:cx="64.426749"
     inkscape:cy="92.176824"
     inkscape:window-width="1600"
     inkscape:window-height="811"
     inkscape:window-x="-9"
     inkscape:window-y="211"
     inkscape:window-maximized="1"
     inkscape:current-layer="svg52" />
  <path
     d="M100.887 71.65V43.566l36.11 17.196v30.38l-36.11-19.49"
     id="path2"
     style="filter:url(#filter875)" />
  <path
     fill="#952781"
     d="M103.754 69.36V47.003l32.098 15.478v24.08l-32.098-17.2"
     id="path4"
     style="filter:url(#filter879)" />
  <path
     d="M100.887 43.565L135.28 28.66l34.966 16.623-31.53 16.624-37.83-18.342"
     id="path6"
     style="filter:url(#filter883)" />
  <path
     fill="#952781"
     d="M106.618 44.138l28.09-12.04 29.805 13.76-26.94 13.756-30.955-15.476"
     id="path8"
     style="filter:url(#filter887)" />
  <path
     d="M136.427 61.334l.57 29.807 33.823-16.62-.575-29.23-33.82 16.05"
     id="path10"
     style="filter:url(#filter891)" />
  <path
     fill="#952781"
     d="M139.865 62.48v24.075L167.38 72.8V48.15l-27.515 14.33"
     id="path12"
     style="filter:url(#filter895)" />
  <path
     d="M49.3 42.417V14.33l36.11 17.198v30.38L49.3 42.418"
     id="path14"
     style="filter:url(#filter899)" />
  <path
     fill="#6483c0"
     d="M52.165 40.125V17.77l32.098 15.477v24.65L52.165 40.124"
     id="path16"
     style="filter:url(#filter903)" />
  <path
     d="M49.3 14.33L83.687 0l34.968 16.05L87.13 32.674 49.3 14.33"
     id="path18"
     style="filter:url(#filter907)" />
  <path
     fill="#6483c0"
     d="M55.027 14.904l28.09-12.037 29.808 13.756L85.983 30.38 55.027 14.905"
     id="path20"
     style="filter:url(#filter911)" />
  <path
     d="M84.836 32.1l.573 29.807 33.82-16.624-.58-29.232L84.83 32.1"
     id="path22"
     style="filter:url(#filter915)" />
  <path
     fill="#6483c0"
     d="M88.276 33.247v24.075l27.514-13.757V19.49L88.276 33.246"
     id="path24"
     style="filter:url(#filter919)" />
  <path
     d="M0 69.932V41.845L35.54 59.04l.573 30.385L0 69.932"
     id="path26"
     style="filter:url(#filter923)" />
  <path
     fill="#d87b30"
     d="M2.866 67.64V45.282l32.1 15.478v24.08l-32.1-17.2"
     id="path28"
     style="filter:url(#filter927)" />
  <path
     d="M0 41.845l34.392-14.903L69.36 43.565 37.26 60.19 0 41.844"
     id="path30"
     style="filter:url(#filter931)" />
  <path
     fill="#d87b30"
     d="M5.16 42.417L33.82 30.38l29.808 13.76-26.943 13.756L5.16 42.416"
     id="path32"
     style="filter:url(#filter935)" />
  <path
     d="M35.54 59.614l.573 29.81L69.933 72.8l-.574-29.235-33.82 16.05"
     id="path34"
     style="filter:url(#filter939)" />
  <path
     fill="#d87b30"
     d="M38.405 60.76l.575 24.078 27.514-13.76-.573-24.648-27.51 14.33"
     id="path36"
     style="filter:url(#filter943)" />
  <path
     d="M52.165 73.944V45.858l35.537 17.196.574 30.95-36.11-20.06"
     id="path38"
     style="filter:url(#filter947)" />
  <path
     fill="#e0d400"
     d="M55.027 72.226v-22.93L87.13 64.774v24.65L55.026 72.227"
     id="path40"
     style="filter:url(#filter951)" />
  <path
     d="M52.165 45.858l34.39-14.33 34.968 16.048-32.1 16.624-37.258-18.342"
     id="path42"
     style="filter:url(#filter955)" />
  <path
     fill="#e0d400"
     d="M57.322 47.003l28.66-12.037 29.808 13.757-27.514 13.184-30.954-14.904"
     id="path44"
     style="filter:url(#filter959)" />
  <path
     d="M87.702 63.626l.574 30.38 33.247-17.196V47.576l-33.82 16.05"
     id="path46"
     style="filter:url(#filter963)" />
  <path
     fill="#e0d400"
     d="M90.57 64.774l.57 24.074 27.516-13.184-.573-24.648L90.57 64.774"
     id="path48"
     style="filter:url(#filter967)" />
  <path
     d="M42.22 170.7H25.17L8.894 120.286H25.24l7.7 31.043a34.7 34.7 0 011.02 5.62h.353a38.792 38.792 0 011.09-5.84l7.488-30.83h15.82zm64.9-15.47q0 7.42-5.2 11.444T87.046 170.7H64.053v-50.414h21.41q20.074 0 20.074 12.2a9.513 9.513 0 01-1.266 4.834 11.385 11.385 0 01-3.85 3.85 16.108 16.108 0 01-5.67 2.25v.14a16.006 16.006 0 016.435 2.128 12.558 12.558 0 014.395 4.254 10.06 10.06 0 011.547 5.29zM89.4 135.123q0-4.676-7.348-4.676h-2.81v9.527h4.394a6.244 6.244 0 004.148-1.354 4.35 4.35 0 001.616-3.498zm1.582 20.04a4.585 4.585 0 00-1.582-3.587 6.064 6.064 0 00-4.184-1.406H79.24v10.3h5.06a7.65 7.65 0 004.887-1.425 4.694 4.694 0 001.796-3.884zM145.4 170.7l-2.215-9.28h-15.042l-2.39 9.28h-16.418l17.365-50.414h18.844l16.35 50.414zm-9.562-39.445h-.352a24.49 24.49 0 01-.492 2.777q-.422 1.934-4.254 16.594h9.633l-3.516-13.71a43.36 43.36 0 01-1.015-5.66z"
     id="path50"
     style="filter:url(#filter971)" />
</svg>
